<svg version="1.1" id="Layer_1" xmlns="http://www.w3.org/2000/svg" xmlns:xlink="http://www.w3.org/1999/xlink" x="0px" y="0px"
	 width="100%" viewBox="0 0 496 496" enable-background="new 0 0 496 496" xml:space="preserve">
<path fill="#000000" opacity="1.000000" stroke="none" 
	d="
M178.592285,264.607300 
	C182.265442,262.405243 184.751450,259.444977 186.928055,256.307007 
	C189.759033,252.225647 193.352783,253.488190 196.750031,254.727112 
	C199.247452,255.637894 197.809937,257.802155 197.374878,259.474976 
	C196.851547,261.487244 195.205505,263.745667 197.697296,265.323395 
	C199.770950,266.636383 201.354187,264.688995 203.035019,263.684113 
	C209.034119,260.097534 212.957962,255.001984 214.935333,248.266037 
	C216.452698,243.097137 219.227615,238.501282 222.529480,234.287476 
	C223.983459,232.431946 225.542267,229.540482 228.508163,231.103149 
	C231.519485,232.689728 229.922684,235.504364 229.157562,237.785980 
	C227.154053,243.760391 223.217941,248.513062 218.486359,253.764160 
	C223.081909,252.441544 224.957108,254.152252 225.835175,258.037170 
	C226.608154,261.457062 228.995148,262.438843 232.331757,260.638062 
	C235.015335,259.189728 237.282272,257.295380 239.399872,255.146790 
	C240.489166,254.041565 241.299744,252.241531 243.767578,253.167557 
	C243.540146,257.036682 239.861237,260.583893 242.197388,265.070740 
	C248.626419,264.278595 251.168060,258.174133 256.074127,254.839401 
	C257.303101,257.494171 255.342682,258.789276 254.296463,260.120026 
	C251.479004,263.703766 248.001770,266.566864 243.643082,268.117340 
	C241.871216,268.747589 240.445663,269.656647 239.080505,270.984528 
	C235.731232,274.242401 232.652786,273.598969 231.233353,269.111053 
	C230.420395,266.540588 229.428848,265.293732 226.647415,264.926300 
	C222.880417,264.428680 222.336273,260.804718 221.173477,257.519196 
	C217.596283,258.943512 216.860550,262.211639 215.233170,264.741486 
	C214.133469,266.451080 213.940964,269.631256 211.200836,269.119476 
	C208.248337,268.567963 210.082047,265.422943 208.894440,263.518921 
	C203.598236,265.653748 198.943527,274.700623 191.449905,265.960236 
	C188.647217,268.445343 185.706436,270.607910 181.814331,267.997925 
	C181.310425,267.660004 180.117889,267.949371 179.450333,268.319611 
	C174.981628,270.798096 171.480865,269.640076 168.824875,265.516693 
	C161.726349,270.842010 161.726349,270.842010 157.785904,264.692810 
	C151.613205,267.219299 145.273331,274.829193 139.375809,264.638519 
	C125.394958,271.195007 125.008308,271.186798 121.034912,264.041595 
	C118.265747,265.805023 115.584106,267.785614 112.446854,268.852417 
	C107.846550,270.416748 105.548347,268.914490 105.678925,264.200897 
	C105.759415,261.295166 106.554039,258.576355 104.296265,255.817627 
	C103.082405,254.334427 104.803619,252.484268 106.593575,251.574722 
	C111.606804,253.670349 112.132080,256.855713 109.208115,261.109589 
	C108.355385,262.350159 107.930695,263.915283 109.201378,265.265686 
	C110.739769,266.900543 112.296715,265.852234 113.739616,265.101379 
	C117.929085,262.921265 121.484421,259.946106 124.481125,256.292908 
	C126.290031,254.087723 128.265167,252.117538 131.053619,251.092606 
	C132.561859,250.538223 133.972336,250.059280 135.099747,251.563950 
	C136.155533,252.973083 135.656845,254.444305 134.822144,255.762909 
	C133.507401,257.839905 131.515076,258.933746 129.184784,259.607330 
	C127.101471,260.209564 124.498177,260.853516 125.879097,263.879364 
	C127.040482,266.424164 129.337082,265.938660 131.502884,265.037476 
	C136.231857,263.069794 139.920624,259.729156 143.407562,256.108643 
	C145.254913,254.190506 147.036484,252.183853 149.604340,251.162216 
	C151.062653,250.582001 152.595200,250.174408 153.707428,251.620270 
	C154.746109,252.970520 154.337219,254.489471 153.506439,255.832214 
	C152.197723,257.947388 150.176849,258.953247 147.807007,259.529297 
	C145.515167,260.086365 143.457291,261.329315 144.549454,264.045685 
	C145.608307,266.679230 148.189621,266.228088 150.172424,265.362518 
	C155.308014,263.120575 159.356247,259.348572 162.935272,255.146667 
	C164.851486,252.896973 166.630035,250.916809 169.934097,251.195190 
	C172.430786,251.405548 172.643524,249.041183 173.428177,247.546082 
	C176.135666,242.387161 178.480148,237.007858 182.947617,233.011719 
	C184.708374,231.436722 186.764267,229.468979 189.086594,230.948181 
	C191.697266,232.611008 189.998398,235.191177 189.106720,237.231674 
	C186.261734,243.742050 181.744781,249.095261 176.840408,254.114609 
	C175.165497,255.828781 173.880753,257.635010 173.130249,259.921661 
	C172.563278,261.649109 172.467606,263.145691 173.770508,264.556854 
	C175.214935,266.121277 176.732925,265.667664 178.592285,264.607300 
M185.734619,237.005051 
	C185.533157,235.984299 184.733215,235.379044 184.032532,236.109222 
	C181.201660,239.059235 178.902832,242.351425 178.185089,247.355621 
	C182.471527,244.772812 183.915543,241.080063 185.734619,237.005051 
M164.552948,258.904633 
	C164.284454,260.245514 162.765320,261.485870 164.445633,263.255463 
	C167.295547,261.484741 169.137146,259.295868 168.850861,255.689270 
	C166.180832,255.092941 165.747864,257.005005 164.552948,258.904633 
M225.213242,237.050232 
	C221.768082,238.304962 221.381073,241.251511 220.665848,244.990860 
	C224.181458,243.021957 225.631119,240.741394 225.213242,237.050232 
M190.976257,257.380371 
	C187.818451,258.439911 187.436661,260.791962 187.973495,263.596832 
	C189.468491,261.721924 192.566650,260.794281 190.976257,257.380371 
z"/>
<path fill="#000000" opacity="1.000000" stroke="none" 
	d="
M181.222534,173.946945 
	C179.517899,177.623535 180.689941,181.193695 180.319229,184.649734 
	C179.498413,192.301529 173.420502,196.521927 169.545380,202.167313 
	C168.430725,203.791183 166.766388,204.992676 165.958435,206.910217 
	C158.168884,225.397507 142.777878,233.510269 124.272575,237.279709 
	C116.398918,238.883530 108.446106,239.375046 100.441498,238.381485 
	C99.066231,238.210785 97.298790,238.685410 96.778587,235.613831 
	C120.623154,236.117798 143.654678,234.138992 158.824173,212.180862 
	C152.308151,215.195251 146.125122,218.970123 138.772644,219.933685 
	C133.412231,220.636185 128.484695,219.704590 123.865456,217.060562 
	C116.809654,213.021881 115.818748,206.169540 121.111618,199.862762 
	C125.013992,195.212860 130.570282,193.280243 135.775650,190.709976 
	C135.246368,188.127060 133.055649,187.208847 131.631561,185.709381 
	C127.708397,181.578491 123.903740,177.373291 121.995201,171.887299 
	C120.368027,167.210068 119.228714,162.342468 123.252823,158.302048 
	C127.186226,154.352722 132.224625,155.040863 136.893219,156.409561 
	C149.591736,160.132370 157.630875,169.135986 163.259537,180.647552 
	C164.269608,182.713303 165.146851,184.843994 166.160263,187.112198 
	C169.420761,186.341507 172.438095,184.086182 175.320587,188.558441 
	C177.044571,182.784378 177.052689,178.151306 177.520035,173.615341 
	C178.515732,163.951279 186.188751,156.714050 194.583282,157.686737 
	C195.580017,157.802216 196.606140,157.863785 197.296341,160.074631 
	C188.905426,160.847031 182.225739,164.120468 181.222534,173.946945 
M138.786957,216.326187 
	C147.596329,215.188904 154.375900,209.960846 161.321960,205.093765 
	C162.733994,204.104340 163.393448,202.618713 163.687164,200.863235 
	C166.418869,184.536392 150.928802,162.409760 134.507874,159.342453 
	C131.372131,158.756714 127.982155,158.233170 125.658844,161.077072 
	C123.313957,163.947403 123.840965,167.391296 125.045715,170.587463 
	C126.962601,175.672913 130.347931,179.786499 134.203827,183.538635 
	C137.789612,187.027924 141.133896,190.910690 147.101730,189.031967 
	C148.226135,188.678009 149.732086,189.250031 150.981674,189.647308 
	C152.820908,190.232025 153.483093,191.733505 153.371933,193.571457 
	C153.247391,195.630524 151.843399,196.349716 150.040283,196.642090 
	C147.735992,197.015747 145.797302,196.061447 143.901276,194.983124 
	C142.297089,194.070770 140.649124,192.899536 138.767792,193.510468 
	C133.046387,195.368408 127.351830,197.415665 123.391098,202.312363 
	C119.809128,206.740768 120.612930,211.065765 125.439941,214.119965 
	C129.291168,216.556778 133.537552,216.980637 138.786957,216.326187 
z"/>
<path fill="#000000" opacity="1.000000" stroke="none" 
	d="
M360.359131,266.083313 
	C358.314880,267.157928 356.629761,268.247864 354.830933,269.096924 
	C352.299438,270.291779 349.762787,270.159515 348.216919,267.604828 
	C346.505493,264.776520 344.806519,265.343872 342.445099,266.684143 
	C339.297180,268.470734 336.026001,269.786560 333.195435,272.352203 
	C329.312622,275.871521 327.649628,271.196899 325.261261,268.951355 
	C320.714203,270.929535 317.286438,269.607635 315.405853,264.739838 
	C309.619110,266.995819 304.196777,274.890778 298.520172,265.313416 
	C290.477509,271.402039 289.018005,271.214752 286.424530,263.661682 
	C283.107086,265.425903 279.929871,267.447235 276.502136,268.861206 
	C271.273560,271.018005 267.737427,268.091431 268.862457,262.566101 
	C269.871307,257.611267 272.670868,253.768784 277.245331,251.354950 
	C278.653107,250.612076 280.070953,250.106308 281.362183,251.421555 
	C282.150757,252.224808 281.994812,253.254745 281.490814,254.208237 
	C280.791473,255.531250 279.967621,255.820908 278.290131,255.602585 
	C275.182068,255.198090 271.127319,261.265564 272.438812,264.157166 
	C273.722961,266.988464 276.078308,266.027740 277.992096,265.063416 
	C281.740784,263.174500 284.862915,260.414978 287.821442,257.441498 
	C289.024628,256.232269 289.825104,254.298874 292.218384,254.247498 
	C294.059357,258.132477 288.132660,261.434937 291.504272,265.452637 
	C297.684540,264.195892 297.590607,256.153351 303.054108,254.266174 
	C305.363098,256.360504 303.954468,258.214111 303.514923,260.048340 
	C303.116913,261.709351 301.534088,263.471313 303.703766,264.991913 
	C305.653717,266.358521 307.545319,265.654236 309.288208,264.518555 
	C314.107422,261.378418 317.944489,257.289856 320.860474,252.328995 
	C321.738434,250.835266 322.288574,248.756790 325.344574,249.956223 
	C323.654388,253.352081 321.912567,256.611145 320.409393,259.976837 
	C319.695679,261.574860 318.655182,263.514099 320.615326,264.982056 
	C322.414001,266.329132 324.005066,265.275970 325.615326,264.221283 
	C329.005432,262.000824 331.926361,259.347992 334.181030,255.956299 
	C335.268311,254.320724 336.402618,252.630585 339.135101,252.667801 
	C339.525543,256.628479 335.179047,260.119110 338.564240,264.345001 
	C347.372986,263.305878 349.236176,253.673752 355.023987,248.875000 
	C355.454498,249.253418 355.885040,249.631821 356.315552,250.010223 
	C354.766815,253.144989 353.137054,256.243256 351.701630,259.429108 
	C350.920380,261.162994 349.419678,263.146027 351.472290,264.888306 
	C353.637512,266.726166 355.607697,265.160553 357.299164,263.870941 
	C359.272736,262.366211 360.947296,260.472229 362.902740,258.939972 
	C365.126556,257.197418 365.865845,251.583511 370.549438,255.811493 
	C378.375732,250.435013 380.004211,255.093033 380.974121,261.891632 
	C381.274139,263.994507 383.674042,263.054504 385.203247,262.325958 
	C388.885864,260.571381 391.494293,257.434998 394.614227,254.956406 
	C395.525177,254.232712 396.291412,253.308334 397.253296,252.671295 
	C399.017395,251.503036 400.706512,249.770676 403.119415,250.768295 
	C404.481262,251.331360 405.153778,252.561356 404.727386,254.038406 
	C404.018707,256.493286 402.986267,258.772888 400.214447,259.560516 
	C399.416382,259.787262 398.584442,259.895355 397.767517,260.055054 
	C395.847198,260.430481 393.905792,261.032349 394.618866,263.517365 
	C395.328674,265.991058 397.547272,266.185059 399.542999,265.487457 
	C403.703278,264.033325 407.050323,261.266998 410.207825,258.254150 
	C411.592926,256.932495 412.712677,255.131088 414.775665,254.972153 
	C415.595062,255.687561 415.613312,256.428253 415.198639,256.938049 
	C411.700623,261.238556 407.639374,264.983917 402.806091,267.668243 
	C396.457703,271.194061 394.021698,270.412903 389.552399,264.188385 
	C378.315186,267.027374 378.315186,267.027374 375.066681,257.661652 
	C369.515717,259.669647 369.630951,267.100250 364.674042,269.058228 
	C362.278961,268.879303 362.813660,265.874329 360.359131,266.083313 
z"/>
<path fill="#000000" opacity="1.000000" stroke="none" 
	d="
M224.412460,295.953979 
	C222.212448,299.465912 221.313644,304.161194 215.906815,304.366791 
	C215.906815,301.656219 215.723267,299.656677 215.958099,297.707581 
	C216.196045,295.732727 214.031586,292.828400 217.839706,292.044525 
	C221.003311,291.393311 223.438446,292.156616 224.412460,295.953979 
z"/>
<path fill="#000000" opacity="1.000000" stroke="none" 
	d="
M281.751617,292.456207 
	C284.811951,291.306396 286.625916,292.318329 287.479126,294.951538 
	C288.157074,297.043732 287.637054,299.027588 285.678040,300.110535 
	C283.753082,301.174683 281.635193,300.766022 280.340027,299.001678 
	C278.649597,296.698975 278.784149,294.374847 281.751617,292.456207 
z"/>
<path fill="#000000" opacity="1.000000" stroke="none" 
	d="
M331.252991,297.503418 
	C330.708649,294.617767 331.897491,293.035797 334.131683,292.139648 
	C335.655853,291.528351 337.086060,291.873840 338.214081,293.024353 
	C339.639618,294.478210 339.749603,296.284149 339.045105,298.073517 
	C337.745575,301.374115 334.530701,301.267029 331.252991,297.503418 
z"/>
<path fill="#000000" opacity="1.000000" stroke="none" 
	d="
M354.310730,299.572754 
	C347.505066,301.030304 346.844177,300.461426 346.377289,293.093964 
	C348.608124,291.665070 351.071106,293.035034 353.299866,292.429016 
	C355.014313,294.649750 354.010803,297.078918 354.310730,299.572754 
z"/>
<path fill="#000000" opacity="1.000000" stroke="none" 
	d="
M323.120361,292.026978 
	C323.638916,292.074951 323.898163,292.089050 323.935394,292.187286 
	C325.194122,295.510834 321.287750,302.662994 316.978149,303.895599 
	C319.620972,299.880890 318.458618,296.319061 316.334473,293.218689 
	C318.532410,290.746857 320.883423,293.248505 323.120361,292.026978 
z"/>
<path fill="#000000" opacity="1.000000" stroke="none" 
	d="
M177.598602,293.857300 
	C179.629059,291.874603 181.576004,291.187103 183.445282,293.277740 
	C185.134766,295.167267 184.466705,297.464996 183.520859,299.316772 
	C182.633347,301.054291 180.630737,300.888580 179.088730,300.106537 
	C176.536163,298.811951 176.305588,296.633972 177.598602,293.857300 
z"/>
<path fill="#000000" opacity="1.000000" stroke="none" 
	d="
M231.261520,298.375916 
	C230.448776,295.681061 230.959274,293.753082 233.161682,292.490601 
	C234.434479,291.760986 235.694214,291.824005 236.869293,292.744904 
	C238.798248,294.256714 238.633926,296.539520 237.950638,298.232208 
	C236.324844,302.259735 233.803802,300.829651 231.261520,298.375916 
z"/>
<path fill="#000000" opacity="1.000000" stroke="none" 
	d="
M270.456451,300.241272 
	C266.887817,297.237518 267.811157,293.618927 268.954529,290.192993 
	C269.646729,288.118835 271.324585,286.997620 274.037476,288.737915 
	C271.155792,292.076813 272.921570,296.622894 270.456451,300.241272 
z"/>
<path fill="#000000" opacity="1.000000" stroke="none" 
	d="
M245.424744,294.083221 
	C246.801178,292.115112 248.489029,291.063843 250.093857,292.707397 
	C251.795212,294.449829 251.620682,297.004395 250.800827,299.145294 
	C250.177017,300.774231 248.328934,300.707275 246.920120,300.261261 
	C243.559402,299.197357 245.720505,296.402130 245.424744,294.083221 
z"/>
<path fill="#000000" opacity="1.000000" stroke="none" 
	d="
M196.950226,297.980927 
	C197.936462,300.773285 196.123444,300.715912 194.479965,300.507019 
	C192.282059,300.227661 190.904816,298.932312 190.776810,296.619843 
	C190.677826,294.831543 191.438431,293.406891 193.007294,292.543945 
	C194.769516,291.574615 196.428452,291.519226 197.907455,293.891846 
	C199.279037,295.388824 191.131729,295.103088 196.950226,297.980927 
z"/>
<path fill="#000000" opacity="1.000000" stroke="none" 
	d="
M208.163544,297.262817 
	C208.561462,300.065063 207.425476,300.627411 204.983765,299.917023 
	C204.669479,296.966339 204.429718,293.963379 204.968140,290.868988 
	C205.186005,289.616974 205.173187,288.394531 206.693024,288.416779 
	C208.148804,288.438141 208.525711,289.586182 208.447006,290.907806 
	C208.328430,292.898285 208.243271,294.890808 208.163544,297.262817 
z"/>
<path fill="#000000" opacity="1.000000" stroke="none" 
	d="
M297.817474,300.239075 
	C291.881317,299.655792 296.370544,295.297577 294.519440,293.380249 
	C296.464386,291.732391 298.089447,291.948212 300.287872,292.983917 
	C298.432495,295.220490 298.501099,297.741058 297.817474,300.239075 
z"/>
<path fill="#000000" opacity="1.000000" stroke="none" 
	d="
M168.059601,298.747528 
	C166.331345,300.958801 164.899872,301.475464 164.648712,298.000000 
	C164.542007,296.523621 164.443054,295.046692 164.334015,293.475555 
	C165.883301,291.881073 167.636841,291.650452 169.700256,292.781525 
	C170.234467,295.038025 166.478790,295.985229 168.059601,298.747528 
z"/>
</svg>